<?xml version="1.0" encoding="UTF-8" standalone="no"?>
<svg
   id="emoji"
   viewBox="0 0 72 72"
   version="1.1"
   sodipodi:docname="Ts1.svg"
   inkscape:version="1.1.2 (0a00cf5339, 2022-02-04, custom)"
   xmlns:inkscape="http://www.inkscape.org/namespaces/inkscape"
   xmlns:sodipodi="http://sodipodi.sourceforge.net/DTD/sodipodi-0.dtd"
   xmlns="http://www.w3.org/2000/svg"
   xmlns:svg="http://www.w3.org/2000/svg">
  <defs
     id="defs32" />
  <sodipodi:namedview
     id="namedview30"
     pagecolor="#ffffff"
     bordercolor="#666666"
     borderopacity="1.0"
     inkscape:pageshadow="2"
     inkscape:pageopacity="0.0"
     inkscape:pagecheckerboard="0"
     showgrid="false"
     inkscape:zoom="5.0486111"
     inkscape:cx="-68.731774"
     inkscape:cy="12.379642"
     inkscape:window-width="3840"
     inkscape:window-height="2084"
     inkscape:window-x="0"
     inkscape:window-y="0"
     inkscape:window-maximized="1"
     inkscape:current-layer="layer1" />
  <g
     id="color"
     transform="translate(-6.0333469,-4.3836144)">
    <path
       fill="#9b9b9a"
       stroke="none"
       d="M 27.4471,62.5368 27.0455,39.6241 c -1.7207,1.0537 -6.1319,5.5625 -6.5918,11.8193 -0.4795,6.5166 5.053,10.2008 6.9934,11.0934 z"
       id="path2" />
    <path
       fill="#9b9b9a"
       stroke="none"
       d="m 44.716,39.5293 -0.1605,22.9123 c 1.0101,-0.4595 2.9881,-0.8169 4.6035,-2.8555 1.5019,-1.8954 2.6903,-5.3707 2.496,-8.4901 -0.1696,-2.7185 -0.8216,-5.4282 -2.0577,-7.2953 -1.596,-2.4107 -3.921,-3.6617 -4.8813,-4.2714 z"
       id="path4" />
    <path
       fill="#d0cfce"
       stroke="none"
       d="M 44.5555,61.5743 44.716,40.0762 c 0.002,-0.3135 -0.3784,-1.4622 -0.2605,-1.4945 v -0.0348 l -3.8116,1.0772 c -0.0024,0.0068 0.0051,0.0252 0.0049,0.0345 0.4023,-0.0864 -0.4505,1.4292 -0.9212,1.7182 -0.5996,0.3672 -0.3068,1.094 -0.3146,1.7913 l -0.1726,15.5037 c -0.0066,0.6065 1.6991,3.7628 1.6406,3.7524 -10e-4,0.0027 -0.0067,0.0174 -0.0067,0.0174 l 3.5812,1.0182 v -0.0356 c -0.1923,-0.0197 0.098,-1.5472 0.1,-1.8499 z"
       id="path6" />
    <path
       fill="#d0cfce"
       stroke="none"
       d="m 31.5306,60.6572 c 0.7295,-0.3183 1.0848,-2.1352 1.0848,-2.9291 L 32.4955,42.8624 c 0,-0.1897 -0.1742,-1.0742 -0.2243,-1.251 -0.0912,-0.3215 -1.3269,-2.0305 -0.894,-1.9341 0.0027,-0.0162 0.0131,-0.0397 0.0131,-0.0532 l -3.5841,-0.9857 -5e-4,0.038 c 0.1202,0.0333 -0.6041,1.7546 -0.6051,2.068 l 0.0551,20.605 c -0.001,0.3028 0.674,2.0549 0.5995,2.0886 l 3.4455,-0.9012 c 0,0 0.0022,-0.0124 0.0045,-0.0259 -0.1002,0.0321 -0.2804,-1.632 0.2254,-1.8537 z"
       id="path8" />
    <path
       fill="#d0cfce"
       stroke="none"
       d="m 60.8332,48.2998 c 1.427,-3.1789 2.2094,-15.1077 2.2094,-15.1173 0,-9.1932 -7.4424,-17.6248 -7.4424,-17.6248 0,0 -2.0547,-2.9007 -5.8415,-4.765 C 44.7358,8.3197 37.6269,6.7089 37.625,6.7089 c -8.9344,0.0125 -19.0996,4.8769 -24.3477,12.485 -1.5825,2.294 -3.0395,8.7727 -3.8933,10.837 -1.0392,2.5123 0.0163,11.0503 0.0264,11.1151 0.0702,0.4535 0.7761,4.1464 0.8683,4.4515 0.122,0.4037 3.15,7.3311 3.4766,7.8459 0.2473,0.3901 1.2495,0.7031 0.9524,1.0283 l 0.0087,0.0372 c 0,0 1.5427,-1.9693 0.0337,-4.4451 -1.509,-2.4757 -3.1651,-8.9466 -3.1651,-14.4447 0,-14.7353 10.5029,-25.8535 24.4296,-25.8623 13.9288,0.0088 24.4307,11.127 24.4307,25.8623 0,5.4991 -2.0251,13.0307 -3.2579,15.0924 -1.2327,2.0618 -0.0249,3.607 -0.0249,3.607 l 0.0158,-0.0487 c -0.1621,-0.307 2.2278,-2.791 3.6549,-5.97 z"
       id="path10" />
  </g>
  <g
     id="hair"
     transform="translate(-6.0333469,-4.3836144)" />
  <g
     id="skin"
     transform="translate(-6.0333469,-4.3836144)" />
  <g
     id="skin-shadow"
     transform="translate(-6.0333469,-4.3836144)" />
  <g
     id="line"
     transform="translate(-6.0333469,-4.3836144)">
    <path
       fill="none"
       stroke="#000000"
       stroke-linecap="round"
       stroke-linejoin="round"
       stroke-miterlimit="10"
       stroke-width="2"
       d="m 31.1611,40.6344 c 0.9756,0.5038 1.643,1.5194 1.643,2.6874 l -2e-4,15.5047 c 0,1.2299 -0.74,2.2845 -1.8007,2.7478"
       id="path16" />
    <path
       fill="none"
       stroke="#000000"
       stroke-linecap="round"
       stroke-linejoin="round"
       stroke-miterlimit="10"
       stroke-width="2"
       d="m 27.5419,39.6241 c 0,0 -6.354,1.7853 -7.0674,11.4887 -0.7134,9.7034 6.9726,11.424 6.9726,11.424 z"
       id="path18" />
    <path
       fill="none"
       stroke="#000000"
       stroke-linecap="round"
       stroke-linejoin="round"
       stroke-miterlimit="10"
       stroke-width="2"
       d="m 40.8586,40.6258 c -0.8573,0.5269 -1.4336,1.4669 -1.4456,2.5423 l -0.1726,15.5037 c -0.0139,1.2475 0.7356,2.3231 1.8156,2.7878"
       id="path20" />
    <path
       fill="none"
       stroke="#000000"
       stroke-linecap="round"
       stroke-linejoin="round"
       stroke-miterlimit="10"
       stroke-width="2"
       d="m 44.716,39.5293 c 0,0 6.3337,1.8559 6.939,11.5667 0.6052,9.7107 -7.0995,11.3456 -7.0995,11.3456 z"
       id="path22" />
    <path
       fill="none"
       stroke="#000000"
       stroke-linecap="round"
       stroke-linejoin="round"
       stroke-miterlimit="10"
       stroke-width="2"
       d="m 58.0474,53.8081 c 3.209,-5.0583 5.0887,-11.1701 5.0887,-18.1887 0,-15.7593 -11.3519,-28.5359 -27.1053,-28.5525 v -7e-4 c -0.0053,0 -0.0102,2e-4 -0.0154,2e-4 -0.0051,0 -0.0102,-2e-4 -0.0153,-2e-4 v 7e-4 C 20.2467,7.0835 8.8948,19.8601 8.8948,35.6194 c 0,7.0186 1.8794,13.1304 5.0884,18.1887"
       id="path24" />
    <path
       fill="none"
       stroke="#000000"
       stroke-linecap="round"
       stroke-linejoin="round"
       stroke-miterlimit="10"
       stroke-width="2"
       d="M 50.2136,20.1939 C 47.0814,15.7503 42.0471,12.8818 36.0254,12.8755 v -5e-4 c -0.0034,0 -0.0066,10e-5 -0.01,10e-5 -0.0033,0 -0.0066,-10e-5 -0.0099,-10e-5 v 5e-4 c -5.9961,0.0063 -11.0132,2.8504 -14.1482,7.2618"
       id="path26" />
  </g>
  <g
     inkscape:groupmode="layer"
     id="layer1"
     inkscape:label="arrow">
    <g
       id="hair-6" />
    <g
       id="skin-7" />
    <g
       id="skin-shadow-5" />
    <g
       id="line-3"
       transform="matrix(0.4961628,-0.49540105,0.49540105,0.4961628,19.678701,54.937612)">
      <polygon
         id="polygon7"
         fill="none"
         stroke="#000000"
         stroke-linecap="round"
         stroke-linejoin="round"
         stroke-miterlimit="10"
         stroke-width="2"
         points="67,35.998 50.2632,20.2344 46.5538,24.269 55.7618,32.9375 16.2382,32.9375 25.4458,24.269 21.7368,20.2344 5,35.998 21.7368,51.7646 25.4458,47.7314 16.2449,39.0664 55.7551,39.0664 46.5538,47.7314 50.2632,51.7646 " />
    </g>
  </g>
</svg>
